<?xml version="1.0" encoding="UTF-8"?>
<svg id="Ebene_1" data-name="Ebene 1" xmlns="http://www.w3.org/2000/svg" viewBox="0 0 433.51 812.11">
  <defs>
    <style>
      .cls-1 {
        fill: #eb634b;
        stroke-width: 0px;
      }
    </style>
  </defs>
  <path class="cls-1" d="M415.66,4.84c-32.73,1.09-65.32,14.47-93.28,30.75C292.82,13.35,256.16,0,216.3,0s-76.19,13.23-105.69,35.3C82.77,19.15,50.38,5.92,17.85,4.84c-47.55-1.59,8.33,26.21,68.98,51.82-29.3,31.56-47.36,73.7-47.36,120.16,0,97.66,79.17,176.83,176.83,176.83s176.83-79.17,176.83-176.83c0-46.32-17.96-88.35-47.11-119.88,60.9-25.69,117.37-53.69,69.65-52.1h0ZM188.58,146.52c0,18.31-14.83,33.14-33.14,33.14s-33.13-14.83-33.13-33.14,14.83-33.13,33.13-33.13,33.14,14.83,33.14,33.13h0ZM216.12,261.87s-22.02-61.5-19.48-70.85c2.79-10.28,19.48-19.87,19.48-19.87,0,0,17.95,8.39,20.05,19.87,2.11,11.47-20.05,70.85-20.05,70.85h0ZM309.69,146.52c0,18.31-14.83,33.14-33.13,33.14s-33.14-14.83-33.14-33.14,14.84-33.13,33.14-33.13,33.13,14.83,33.13,33.13h0Z"/>
  <path class="cls-1" d="M383.92,561.66v-131.07c0-54.04-21.69-74.4-54.6-74.4h-34.4v207.82c0,84.57-21.69,119.03-74.05,119.03s-82.28-36.03-82.28-124.52v-124.81l.06-76.83s-2.87-.7-34.38-.7-54.69,35.94-54.69,74.19v130.5c0,97.38,31.83,163.76,86.23,193.82-2,6.11-3.25,14.13-3.25,23.03,0,18.98,5.56,34.38,12.41,34.38,4.45,0,8.31-6.51,10.51-16.23,2.2,9.72,6.06,16.23,10.51,16.23,5.17,0,9.59-8.75,11.46-21.18,1.87,12.43,6.29,21.18,11.46,21.18,6.86,0,12.41-15.39,12.41-34.38,0-1.76-.09-3.44-.19-5.12,3.33.18,6.59.48,10.01.48,6.87,0,13.51-.3,19.97-.84-.1,1.79-.2,3.6-.2,5.47,0,18.98,5.56,34.38,12.41,34.38,4.44,0,8.31-6.51,10.51-16.23,2.19,9.71,6.06,16.23,10.51,16.23,5.17,0,9.59-8.75,11.46-21.18,1.87,12.43,6.29,21.18,11.46,21.18,6.86,0,12.41-15.39,12.41-34.38,0-9.08-1.3-17.28-3.37-23.43,58.04-30.11,87.62-95.88,87.62-192.64h0ZM275.55,763.13c.19-.07.37-.13.55-.2-.09.54-.21,1.05-.29,1.6-.07-.49-.18-.93-.26-1.4h0Z"/>
</svg>